<svg width="98" height="98" viewBox="0 0 98 98" fill="none" xmlns="http://www.w3.org/2000/svg">
<g clip-path="url(#clip0_617_51)">
<path d="M64.9998 48.9998C60.8878 48.9998 56.9118 47.1638 53.7998 43.8318C50.7738 40.5818 48.9258 36.2478 48.5998 31.6318C48.2518 26.7078 49.7538 22.1798 52.8278 18.8798C55.9018 15.5798 60.1998 13.7998 64.9998 13.7998C69.7658 13.7998 74.0758 15.6118 77.1398 18.9038C80.2338 22.2278 81.7398 26.7478 81.3918 31.6298C81.0578 36.2518 79.2118 40.5838 76.1918 43.8298C73.0878 47.1638 69.1138 48.9998 64.9998 48.9998ZM91.3658 84.1998H38.6358C37.788 84.2043 36.9505 84.0143 36.1877 83.6444C35.4249 83.2744 34.7571 82.7344 34.2358 82.0658C33.6828 81.3411 33.3009 80.5006 33.1187 79.6074C32.9365 78.7141 32.9588 77.7912 33.1838 76.9078C34.8678 70.1458 39.0398 64.5378 45.2478 60.6918C50.7578 57.2798 57.7718 55.3998 64.9998 55.3998C72.3698 55.3998 79.1998 57.1998 84.7418 60.6098C90.9638 64.4358 95.1418 70.0758 96.8178 76.9198C97.0401 77.8039 97.0598 78.7267 96.8756 79.6195C96.6913 80.5123 96.3079 81.3519 95.7538 82.0758C95.233 82.7413 94.5668 83.2787 93.8062 83.6468C93.0456 84.015 92.2108 84.2041 91.3658 84.1998ZM27.1998 49.7998C20.1618 49.7998 13.9738 43.2558 13.3998 35.2138C13.1158 31.0938 14.3998 27.2838 16.9998 24.4898C19.5718 21.7238 23.1998 20.1998 27.1998 20.1998C31.1998 20.1998 34.7998 21.7318 37.3858 24.5138C40.0058 27.3298 41.2858 31.1318 40.9858 35.2178C40.4118 43.2578 34.2258 49.7998 27.1998 49.7998ZM40.3318 56.0898C36.8138 54.3698 32.2478 53.5098 27.2018 53.5098C21.3098 53.5098 15.5878 55.0458 11.0878 57.8338C5.98577 60.9998 2.55377 65.6098 1.16777 71.1758C0.964943 71.9764 0.945759 72.8125 1.11166 73.6215C1.27755 74.4306 1.62423 75.1916 2.12577 75.8478C2.60167 76.4587 3.21134 76.9524 3.90791 77.2908C4.60447 77.6292 5.36937 77.8033 6.14377 77.7998H28.3438C28.7185 77.7998 29.0813 77.6682 29.3689 77.4281C29.6566 77.1879 29.8508 76.8545 29.9178 76.4858C29.9398 76.3598 29.9678 76.2338 29.9998 76.1098C31.6958 69.2978 35.6698 63.5418 41.5418 59.3458C41.7577 59.1901 41.9315 58.983 42.0472 58.7432C42.1629 58.5035 42.2169 58.2386 42.2044 57.9727C42.1919 57.7067 42.1132 57.4481 41.9755 57.2203C41.8378 56.9924 41.6454 56.8025 41.4158 56.6678C41.1018 56.4838 40.7418 56.2898 40.3318 56.0898Z" fill="#300276"/>
<circle cx="77.75" cy="78.25" r="18.75" fill="#919191"/>
<path d="M72.311 69.3852C72.6905 69.0402 73.1045 68.7182 73.553 68.4192C74.0015 68.1202 74.4845 67.8557 75.002 67.6257C75.531 67.3957 76.1003 67.2175 76.7098 67.091C77.3308 66.953 77.9978 66.884 78.7108 66.884C79.6653 66.884 80.5393 67.022 81.3328 67.298C82.1378 67.5625 82.8278 67.9477 83.4028 68.4537C83.9893 68.9482 84.4435 69.552 84.7655 70.265C85.0875 70.9665 85.2485 71.7542 85.2485 72.6282C85.2485 73.5022 85.122 74.2612 84.869 74.9052C84.616 75.5377 84.294 76.0897 83.903 76.5612C83.512 77.0327 83.0865 77.4467 82.6265 77.8032C82.1665 78.1482 81.7295 78.476 81.3155 78.7865C80.913 79.0855 80.5623 79.3902 80.2633 79.7007C79.9758 79.9997 79.8033 80.3332 79.7458 80.7012L79.3835 83.2888H76.865L76.6063 80.4425C76.5488 79.902 76.635 79.4362 76.865 79.0452C77.095 78.6542 77.3998 78.2862 77.7793 77.9412C78.1703 77.5962 78.5958 77.2685 79.0558 76.958C79.5273 76.636 79.9643 76.2795 80.3668 75.8885C80.7693 75.4975 81.1085 75.0605 81.3845 74.5775C81.6605 74.0945 81.7985 73.5137 81.7985 72.8352C81.7985 72.3867 81.7123 71.9842 81.5398 71.6277C81.3673 71.2597 81.1258 70.9492 80.8153 70.6962C80.5048 70.4432 80.1425 70.2477 79.7285 70.1097C79.3145 69.9717 78.866 69.9027 78.383 69.9027C77.7045 69.9027 77.1295 69.9832 76.658 70.1442C76.1865 70.3052 75.784 70.4835 75.4505 70.679C75.117 70.863 74.841 71.0355 74.6225 71.1965C74.404 71.346 74.22 71.4207 74.0705 71.4207C73.714 71.4207 73.4495 71.2655 73.277 70.955L72.311 69.3852ZM75.623 89.861C75.623 89.5275 75.6805 89.217 75.7955 88.9295C75.922 88.6305 76.0888 88.3717 76.2958 88.1532C76.5143 87.9347 76.7673 87.7622 77.0548 87.6357C77.3538 87.5092 77.67 87.446 78.0035 87.446C78.337 87.446 78.6475 87.5092 78.935 87.6357C79.234 87.7622 79.4928 87.9347 79.7112 88.1532C79.9298 88.3717 80.1023 88.6305 80.2288 88.9295C80.3553 89.217 80.4185 89.5275 80.4185 89.861C80.4185 90.206 80.3553 90.5222 80.2288 90.8097C80.1023 91.0972 79.9298 91.3502 79.7112 91.5687C79.4928 91.7872 79.234 91.954 78.935 92.069C78.6475 92.1955 78.337 92.2588 78.0035 92.2588C77.67 92.2588 77.3538 92.1955 77.0548 92.069C76.7673 91.954 76.5143 91.7872 76.2958 91.5687C76.0888 91.3502 75.922 91.0972 75.7955 90.8097C75.6805 90.5222 75.623 90.206 75.623 89.861Z" fill="white"/>
</g>
<defs>
<clipPath id="clip0_617_51">
<rect width="98" height="98" fill="white"/>
</clipPath>
</defs>
</svg>
