<svg width="98" height="98" viewBox="0 0 98 98" fill="none" xmlns="http://www.w3.org/2000/svg">
<g clip-path="url(#clip0_617_39)">
<path d="M64.9998 48.9998C60.8878 48.9998 56.9118 47.1638 53.7998 43.8318C50.7738 40.5818 48.9258 36.2478 48.5998 31.6318C48.2518 26.7078 49.7538 22.1798 52.8278 18.8798C55.9018 15.5798 60.1998 13.7998 64.9998 13.7998C69.7658 13.7998 74.0758 15.6118 77.1398 18.9038C80.2338 22.2278 81.7398 26.7478 81.3918 31.6298C81.0578 36.2518 79.2118 40.5838 76.1918 43.8298C73.0878 47.1638 69.1138 48.9998 64.9998 48.9998ZM91.3658 84.1998H38.6358C37.788 84.2043 36.9505 84.0143 36.1877 83.6444C35.4249 83.2744 34.7571 82.7344 34.2358 82.0658C33.6828 81.3411 33.3009 80.5006 33.1187 79.6074C32.9365 78.7141 32.9588 77.7912 33.1838 76.9078C34.8678 70.1458 39.0398 64.5378 45.2478 60.6918C50.7578 57.2798 57.7718 55.3998 64.9998 55.3998C72.3698 55.3998 79.1998 57.1998 84.7418 60.6098C90.9638 64.4358 95.1418 70.0758 96.8178 76.9198C97.0401 77.8039 97.0598 78.7267 96.8756 79.6195C96.6913 80.5123 96.3079 81.3519 95.7538 82.0758C95.233 82.7413 94.5668 83.2787 93.8062 83.6468C93.0456 84.015 92.2108 84.2041 91.3658 84.1998ZM27.1998 49.7998C20.1618 49.7998 13.9738 43.2558 13.3998 35.2138C13.1158 31.0938 14.3998 27.2838 16.9998 24.4898C19.5718 21.7238 23.1998 20.1998 27.1998 20.1998C31.1998 20.1998 34.7998 21.7318 37.3858 24.5138C40.0058 27.3298 41.2858 31.1318 40.9858 35.2178C40.4118 43.2578 34.2258 49.7998 27.1998 49.7998ZM40.3318 56.0898C36.8138 54.3698 32.2478 53.5098 27.2018 53.5098C21.3098 53.5098 15.5878 55.0458 11.0878 57.8338C5.98577 60.9998 2.55377 65.6098 1.16777 71.1758C0.964943 71.9764 0.945759 72.8125 1.11166 73.6215C1.27755 74.4306 1.62423 75.1916 2.12577 75.8478C2.60167 76.4587 3.21134 76.9524 3.90791 77.2908C4.60447 77.6292 5.36937 77.8033 6.14377 77.7998H28.3438C28.7185 77.7998 29.0813 77.6682 29.3689 77.4281C29.6566 77.1879 29.8508 76.8545 29.9178 76.4858C29.9398 76.3598 29.9678 76.2338 29.9998 76.1098C31.6958 69.2978 35.6698 63.5418 41.5418 59.3458C41.7577 59.1901 41.9315 58.983 42.0472 58.7432C42.1629 58.5035 42.2169 58.2386 42.2044 57.9727C42.1919 57.7067 42.1132 57.4481 41.9755 57.2203C41.8378 56.9924 41.6454 56.8025 41.4158 56.6678C41.1018 56.4838 40.7418 56.2898 40.3318 56.0898Z" fill="#300276"/>
<circle cx="77.75" cy="76.75" r="18.75" fill="#008000"/>
<path d="M68.75 77.5L77 85.75L86.9593 68.5" stroke="white" stroke-width="4.5" stroke-linecap="round"/>
</g>
<defs>
<clipPath id="clip0_617_39">
<rect width="98" height="98" fill="white"/>
</clipPath>
</defs>
</svg>
