<svg width="98" height="98" viewBox="0 0 98 98" fill="none" xmlns="http://www.w3.org/2000/svg">
<g clip-path="url(#clip0_589_37)">
<path d="M67.9084 27.536L62.5844 19.124C61.4624 17.816 59.9244 17 58.2004 17H39.8004C38.0764 17 36.5384 17.816 35.4164 19.124L30.0924 27.536C28.9704 28.846 27.5244 29.8 25.8004 29.8H13.8004C12.103 29.8 10.4751 30.4743 9.27491 31.6745C8.07467 32.8748 7.40039 34.5026 7.40039 36.2V74.6C7.40039 76.2974 8.07467 77.9253 9.27491 79.1255C10.4751 80.3257 12.103 81 13.8004 81H84.2004C85.8978 81 87.5256 80.3257 88.7259 79.1255C89.9261 77.9253 90.6004 76.2974 90.6004 74.6V36.2C90.6004 34.5026 89.9261 32.8748 88.7259 31.6745C87.5256 30.4743 85.8978 29.8 84.2004 29.8H72.4004C70.6704 29.8 69.0304 28.846 67.9084 27.536Z" stroke="white" stroke-width="6.4" stroke-linecap="round" stroke-linejoin="round"/>
<path d="M49 68.2002C57.8366 68.2002 65 61.0368 65 52.2002C65 43.3636 57.8366 36.2002 49 36.2002C40.1634 36.2002 33 43.3636 33 52.2002C33 61.0368 40.1634 68.2002 49 68.2002Z" stroke="white" stroke-width="6.4" stroke-miterlimit="10"/>
<path d="M22.5998 29.4V25H17.7998V29.4" stroke="white" stroke-width="6.4" stroke-linecap="round" stroke-linejoin="round"/>
</g>
<defs>
<clipPath id="clip0_589_37">
<rect width="98" height="98" fill="white"/>
</clipPath>
</defs>
</svg>
