<svg width="98" height="98" viewBox="0 0 98 98" fill="none" xmlns="http://www.w3.org/2000/svg">
<path d="M69.1602 8.67969H28.8402C24.0685 8.67969 20.2002 12.5479 20.2002 17.3197V80.6797C20.2002 85.4514 24.0685 89.3197 28.8402 89.3197H69.1602C73.9319 89.3197 77.8002 85.4514 77.8002 80.6797V17.3197C77.8002 12.5479 73.9319 8.67969 69.1602 8.67969Z" stroke="white" stroke-width="5.76" stroke-linejoin="round"/>
<path d="M40.3604 17.3203H57.6404" stroke="white" stroke-width="5.76" stroke-linecap="round" stroke-linejoin="round"/>
<path d="M62.9464 54.1314C62.2671 53.4078 61.4443 52.8337 60.5306 52.446C59.617 52.0583 58.6324 51.8654 57.64 51.8796C55.552 51.8796 53.6638 52.6734 52.3228 54.117C50.9818 55.5606 50.3068 57.5586 50.4616 59.697C50.7694 63.9234 53.9896 67.3596 57.64 67.3596C61.2904 67.3596 64.5052 63.9234 64.8166 59.7006C64.975 57.5802 64.309 55.602 62.9464 54.1314ZM69.8242 83.5596H45.4558C45.1386 83.5647 44.8241 83.5001 44.5345 83.3704C44.245 83.2407 43.9874 83.0491 43.78 82.809C43.5551 82.5396 43.3937 82.2231 43.3077 81.8828C43.2217 81.5426 43.2133 81.1874 43.2832 80.8434C43.8682 77.6826 45.6916 75.0276 48.5572 73.1646C51.1024 71.5104 54.328 70.5996 57.64 70.5996C60.952 70.5996 64.1776 71.5104 66.7228 73.1646C69.5884 75.0276 71.4118 77.6826 71.9968 80.8434C72.0667 81.1874 72.0583 81.5426 71.9723 81.8828C71.8863 82.2231 71.7249 82.5396 71.5 82.809C71.2926 83.0491 71.035 83.2407 70.7454 83.3704C70.4559 83.5001 70.1414 83.5647 69.8242 83.5596Z" fill="white"/>
</svg>
