<svg width="98" height="98" viewBox="0 0 98 98" fill="none" xmlns="http://www.w3.org/2000/svg">
<g clip-path="url(#clip0_648_17)">
<path d="M57.4856 48.9997L81.2356 25.2497C82.3628 24.1245 82.9968 22.5976 82.9982 21.005C82.9997 19.4123 82.3683 17.8843 81.2431 16.7572C80.118 15.63 78.5911 14.996 76.9984 14.9946C75.4058 14.9932 73.8778 15.6245 72.7506 16.7497L49.0006 40.4997L25.2506 16.7497C24.1235 15.6225 22.5947 14.9893 21.0006 14.9893C19.4066 14.9893 17.8778 15.6225 16.7506 16.7497C15.6235 17.8768 14.9902 19.4056 14.9902 20.9997C14.9902 22.5937 15.6235 24.1225 16.7506 25.2497L40.5006 48.9997L16.7506 72.7497C15.6235 73.8768 14.9902 75.4056 14.9902 76.9997C14.9902 78.5937 15.6235 80.1225 16.7506 81.2497C17.8778 82.3768 19.4066 83.0101 21.0006 83.0101C22.5947 83.0101 24.1235 82.3768 25.2506 81.2497L49.0006 57.4997L72.7506 81.2497C73.8778 82.3768 75.4066 83.0101 77.0006 83.0101C78.5947 83.0101 80.1235 82.3768 81.2506 81.2497C82.3778 80.1225 83.011 78.5937 83.011 76.9997C83.011 75.4056 82.3778 73.8768 81.2506 72.7497L57.4856 48.9997Z" fill="#AC0505"/>
</g>
<defs>
<clipPath id="clip0_648_17">
<rect width="98" height="98" fill="white"/>
</clipPath>
</defs>
</svg>
