<svg width="98" height="98" viewBox="0 0 98 98" fill="none" xmlns="http://www.w3.org/2000/svg">
<g clip-path="url(#clip0_593_383)">
<path d="M89.7877 8.45045C89.4954 8.12933 89.1411 7.8708 88.7461 7.69048C88.3511 7.51016 87.9237 7.41179 87.4896 7.40132C87.0555 7.39086 86.6239 7.4685 86.2206 7.62957C85.8174 7.79064 85.451 8.03179 85.1437 8.33845L82.6697 10.8004C82.3698 11.1005 82.2014 11.5073 82.2014 11.9314C82.2014 12.3556 82.3698 12.7624 82.6697 13.0624L84.9377 15.3264C85.0863 15.4758 85.263 15.5943 85.4576 15.6752C85.6523 15.7561 85.8609 15.7977 86.0717 15.7977C86.2824 15.7977 86.4911 15.7561 86.6857 15.6752C86.8803 15.5943 87.057 15.4758 87.2057 15.3264L89.6177 12.9264C90.8377 11.7084 90.9517 9.72445 89.7877 8.45045ZM77.6677 15.8004L41.5637 51.8405C41.3448 52.0585 41.1857 52.3291 41.1017 52.6265L39.4317 57.6004C39.3917 57.7354 39.3888 57.8787 39.4235 58.0151C39.4581 58.1516 39.5289 58.2761 39.6285 58.3757C39.728 58.4752 39.8526 58.546 39.989 58.5807C40.1254 58.6153 40.2687 58.6125 40.4037 58.5724L45.3737 56.9025C45.671 56.8185 45.9416 56.6594 46.1597 56.4405L82.1997 20.3324C82.5331 19.9955 82.7201 19.5405 82.7201 19.0664C82.7201 18.5924 82.5331 18.1374 82.1997 17.8004L80.2097 15.8004C79.8722 15.464 79.4152 15.275 78.9387 15.275C78.4621 15.275 78.0051 15.464 77.6677 15.8004Z" fill="white"/>
<path d="M75.0684 36.5322L50.6904 60.9582C49.7482 61.9027 48.5902 62.6036 47.3164 63.0002L42.1364 64.7342C40.907 65.0814 39.6074 65.0945 38.3713 64.7721C37.1352 64.4498 36.0074 63.8037 35.1041 62.9004C34.2009 61.9972 33.5548 60.8694 33.2325 59.6333C32.9101 58.3972 32.9232 57.0975 33.2704 55.8682L35.0044 50.6882C35.3999 49.4148 36.0993 48.2568 37.0424 47.3142L61.4684 22.9322C61.6923 22.7085 61.8448 22.4235 61.9067 22.1132C61.9686 21.8028 61.9371 21.4811 61.8162 21.1887C61.6952 20.8962 61.4903 20.6462 61.2272 20.4703C60.9642 20.2943 60.6549 20.2003 60.3384 20.2002H18.6004C15.63 20.2002 12.7812 21.3802 10.6808 23.4806C8.58039 25.581 7.40039 28.4298 7.40039 31.4002V79.4002C7.40039 82.3706 8.58039 85.2194 10.6808 87.3198C12.7812 89.4202 15.63 90.6002 18.6004 90.6002H66.6004C69.5708 90.6002 72.4196 89.4202 74.52 87.3198C76.6204 85.2194 77.8004 82.3706 77.8004 79.4002V37.6622C77.8002 37.3457 77.7063 37.0364 77.5303 36.7734C77.3544 36.5103 77.1044 36.3054 76.8119 36.1844C76.5195 36.0635 76.1978 36.0319 75.8874 36.0938C75.5771 36.1558 75.292 36.3083 75.0684 36.5322Z" fill="white"/>
</g>
<defs>
<clipPath id="clip0_593_383">
<rect width="98" height="98" fill="white"/>
</clipPath>
</defs>
</svg>
