<svg width="98" height="98" viewBox="0 0 98 98" fill="none" xmlns="http://www.w3.org/2000/svg">
<path d="M82 76.1V29.9C82 24.4324 78.834 20 74.9286 20H23.0714C19.166 20 16 24.4324 16 29.9V76.1C16 81.5676 19.166 86 23.0714 86H74.9286C78.834 86 82 81.5676 82 76.1Z" stroke="white" stroke-width="5.76" stroke-linejoin="round"/>
<path d="M29 20.5V10.5" stroke="white" stroke-width="5" stroke-linecap="round"/>
<path d="M69 20.5V10.5" stroke="white" stroke-width="5" stroke-linecap="round"/>
<path d="M17 35.5H81" stroke="white" stroke-width="3" stroke-linecap="round"/>
<path d="M64 55.7692H52.4821L49 45L45.5179 55.7692H34L43.375 62.2308L39.7589 73L49 66.2692L58.2411 73L54.625 62.2308L64 55.7692Z" stroke="white" stroke-width="4" stroke-linejoin="round"/>
</svg>
