<svg width="98" height="98" viewBox="0 0 98 98" fill="none" xmlns="http://www.w3.org/2000/svg">
<path d="M29 20.5V10.5" stroke="white" stroke-width="5" stroke-linecap="round"/>
<path d="M69 20.5V10.5" stroke="white" stroke-width="5" stroke-linecap="round"/>
<path d="M74.9297 17.1201C78.0538 17.1202 80.6107 18.8977 82.2734 21.2256C83.9402 23.559 84.8809 26.6355 84.8809 29.9004V76.0996C84.8809 79.3645 83.9402 82.441 82.2734 84.7744C80.6107 87.1023 78.0538 88.8798 74.9297 88.8799H23.0723C19.9481 88.8798 17.3913 87.1023 15.7285 84.7744C14.0618 82.441 13.1211 79.3645 13.1211 76.0996V29.9004C13.1211 26.6355 14.0618 23.559 15.7285 21.2256C17.3913 18.8977 19.9481 17.1202 23.0723 17.1201H74.9297ZM49.001 43C48.1335 43 47.3646 43.5593 47.0977 44.3848L44.0635 53.7695H34.001C33.1254 53.7695 32.3521 54.3389 32.0918 55.1748C31.8316 56.0109 32.1452 56.9191 32.8662 57.416L41 63.0225L37.8643 72.3633C37.5872 73.1885 37.8751 74.0986 38.5771 74.6133C39.2792 75.128 40.2339 75.1287 40.9375 74.6162L49.001 68.7432L57.0645 74.6162C57.7681 75.1287 58.7228 75.128 59.4248 74.6133C60.1268 74.0986 60.4148 73.1885 60.1377 72.3633L57.001 63.0225L65.1357 57.416C65.8567 56.9191 66.1704 56.0109 65.9102 55.1748C65.6499 54.3389 64.8765 53.7695 64.001 53.7695H53.9385L50.9043 44.3848C50.6374 43.5593 49.8685 43 49.001 43ZM17.001 34C16.1725 34 15.501 34.6716 15.501 35.5C15.501 36.3284 16.1725 37 17.001 37H81.001C81.8294 37 82.501 36.3284 82.501 35.5C82.501 34.6716 81.8294 34 81.001 34H17.001Z" fill="white"/>
</svg>
