<svg width="98" height="98" viewBox="0 0 98 98" fill="none" xmlns="http://www.w3.org/2000/svg">
<path d="M69.1601 25.9598H69.1763ZM89.2391 20.1998H72.8483L74.4539 13.781L81.3515 11.432C82.8185 10.9334 83.6915 9.37458 83.2685 7.88418C83.1609 7.50926 82.9782 7.16011 82.7316 6.85791C82.485 6.55571 82.1795 6.30676 81.8338 6.12615C81.4881 5.94554 81.1093 5.83705 80.7203 5.80725C80.3314 5.77744 79.9405 5.82696 79.5713 5.95278L71.1113 8.83278C70.6557 8.98813 70.2463 9.25521 69.9205 9.60959C69.5948 9.96396 69.363 10.3943 69.2465 10.8614L66.9119 20.1998H43.3211C41.7713 20.1998 40.4411 21.3914 40.3637 22.9412C40.3449 23.3306 40.4054 23.7197 40.5415 24.0851C40.6776 24.4504 40.8864 24.7843 41.1554 25.0665C41.4243 25.3488 41.7478 25.5735 42.1061 25.727C42.4644 25.8806 42.8502 25.9597 43.2401 25.9598H43.7351L43.9151 27.5186C43.9575 27.8826 44.1322 28.2184 44.406 28.462C44.6798 28.7056 45.0336 28.84 45.4001 28.8398C52.4201 28.8398 58.6589 30.8018 63.4217 34.5134C66.0708 36.5546 68.2183 39.1743 69.7001 42.1724C70.5296 43.8588 71.1416 45.6436 71.5217 47.4842C71.5973 47.8428 71.8098 48.1579 72.1139 48.3626C74.5625 50.024 76.3688 52.4734 77.2327 55.3036C78.0965 58.1338 77.9658 61.1744 76.8623 63.92C76.7339 64.2377 76.7244 64.5911 76.8353 64.9154C77.473 66.7428 77.7991 68.6643 77.8001 70.5998C77.8001 74.621 76.4321 78.4532 73.9481 81.3908C72.5398 83.0674 70.7682 84.4013 68.7677 85.2914C68.4216 85.4439 68.1494 85.7264 68.0099 86.078C67.2623 88.0255 66.2066 89.8402 64.8833 91.4528C64.8282 91.5182 64.7929 91.598 64.7815 91.6827C64.7702 91.7675 64.7832 91.8538 64.8191 91.9314C64.855 92.009 64.9122 92.0748 64.9842 92.1211C65.0561 92.1674 65.1398 92.1921 65.2253 92.1926H74.0831C76.2518 92.1837 78.3386 91.3633 79.9327 89.8928C81.5268 88.4223 82.5126 86.4083 82.6961 84.2474L88.8521 25.9598H89.3201C89.7102 25.9602 90.0964 25.8814 90.4552 25.7281C90.814 25.5748 91.1378 25.3501 91.4072 25.0678C91.6765 24.7856 91.8857 24.4515 92.022 24.0859C92.1583 23.7203 92.2189 23.3309 92.2001 22.9412C92.1245 21.3914 90.7889 20.1998 89.2391 20.1998Z" fill="white"/>
<path d="M22.484 60.5196C23.052 60.5169 23.6149 60.6269 24.1402 60.8432C24.6654 61.0595 25.1426 61.3777 25.544 61.7796L28.3358 64.5714C28.4027 64.6384 28.4821 64.6915 28.5695 64.7277C28.6569 64.7639 28.7506 64.7826 28.8452 64.7826C28.9398 64.7826 29.0335 64.7639 29.1209 64.7277C29.2083 64.6915 29.2877 64.6384 29.3546 64.5714L32.141 61.7796C32.5425 61.3777 33.0196 61.0595 33.5448 60.8432C34.0701 60.6269 34.633 60.5169 35.201 60.5196H70.5854C70.7745 60.5215 70.9621 60.4861 71.1376 60.4155C71.313 60.3449 71.4728 60.2404 71.6079 60.108C71.7429 59.9757 71.8506 59.818 71.9247 59.644C71.9988 59.47 72.0379 59.2831 72.0398 59.094V59.0796C72.0378 57.4204 71.4638 55.8127 70.4145 54.5273C69.3653 53.242 67.905 52.3578 66.2798 52.0236C66.1322 46.6794 63.9398 42.2064 59.888 39.0636C56.1404 36.1404 51.1328 34.5996 45.3998 34.5996H32.4398C20.1602 34.5996 11.8424 41.5782 11.5598 52.0236C9.93461 52.3578 8.47431 53.242 7.42508 54.5273C6.37584 55.8127 5.80183 57.4204 5.79981 59.0796C5.79981 59.4615 5.95152 59.8278 6.22157 60.0978C6.49162 60.3679 6.85789 60.5196 7.23981 60.5196H22.484ZM36.389 66.2796C36.1998 66.2795 36.0125 66.3166 35.8377 66.3889C35.6629 66.4611 35.504 66.5671 35.3702 66.7008L31.385 70.6878C30.7099 71.3627 29.7944 71.7418 28.8398 71.7418C27.8852 71.7418 26.9697 71.3627 26.2946 70.6878L22.3094 66.7008C22.1756 66.5671 22.0167 66.4611 21.8419 66.3889C21.6671 66.3166 21.4798 66.2795 21.2906 66.2796H8.79861C8.12209 66.2766 7.46629 66.5129 6.94716 66.9467C6.42803 67.3805 6.07901 67.9839 5.96181 68.6502C5.85367 69.2944 5.79948 69.9464 5.79981 70.5996C5.79981 76.1058 9.60321 80.5914 14.3066 80.6796C14.744 83.4012 15.8024 85.86 17.3954 87.7842C19.7516 90.63 23.177 92.1996 27.0398 92.1996H50.7998C54.6626 92.1996 58.088 90.63 60.4442 87.7806C62.0372 85.8564 63.0956 83.3976 63.533 80.676C68.2364 80.5914 72.0398 76.1058 72.0398 70.596C72.0401 69.9428 71.9859 69.2908 71.8778 68.6466C71.7598 67.981 71.4105 67.3784 70.8914 66.9453C70.3724 66.5122 69.717 66.2764 69.041 66.2796H36.389Z" fill="white"/>
</svg>
