<svg width="98" height="98" viewBox="0 0 98 98" fill="none" xmlns="http://www.w3.org/2000/svg">
<path d="M69.1603 5.7998H28.8403C25.786 5.80314 22.8578 7.01792 20.6981 9.17762C18.5384 11.3373 17.3236 14.2655 17.3203 17.3198V80.6798C17.3236 83.7341 18.5384 86.6623 20.6981 88.822C22.8578 90.9817 25.786 92.1965 28.8403 92.1998H69.1603C72.2146 92.1965 75.1428 90.9817 77.3025 88.822C79.4622 86.6623 80.677 83.7341 80.6803 80.6798V17.3198C80.677 14.2655 79.4622 11.3373 77.3025 9.17762C75.1428 7.01792 72.2146 5.80314 69.1603 5.7998ZM62.9467 54.1316C64.3093 55.6022 64.9753 57.5804 64.8169 59.7008C64.5055 63.9236 61.2853 67.3598 57.6403 67.3598C53.9953 67.3598 50.7697 63.9236 50.4619 59.7008C50.3071 57.5588 50.9677 55.577 52.3231 54.1208C53.6785 52.6646 55.5523 51.8798 57.6403 51.8798C58.6328 51.8655 59.6173 52.0584 60.531 52.4461C61.4447 52.8339 62.2674 53.4079 62.9467 54.1316ZM37.4803 17.3198C37.4803 16.556 37.7837 15.8234 38.3238 15.2833C38.864 14.7432 39.5965 14.4398 40.3603 14.4398H57.6403C58.4041 14.4398 59.1367 14.7432 59.6768 15.2833C60.2169 15.8234 60.5203 16.556 60.5203 17.3198C60.5203 18.0836 60.2169 18.8162 59.6768 19.3563C59.1367 19.8964 58.4041 20.1998 57.6403 20.1998H40.3603C39.5965 20.1998 38.864 19.8964 38.3238 19.3563C37.7837 18.8162 37.4803 18.0836 37.4803 17.3198ZM71.5003 82.8092C71.2929 83.0493 71.0353 83.2409 70.7458 83.3706C70.4562 83.5003 70.1417 83.5649 69.8245 83.5598H45.4561C45.1389 83.5649 44.8244 83.5003 44.5349 83.3706C44.2453 83.2409 43.9877 83.0493 43.7803 82.8092C43.5554 82.5398 43.394 82.2233 43.308 81.883C43.222 81.5428 43.2136 81.1875 43.2835 80.8436C43.8685 77.6828 45.6919 75.0278 48.5575 73.1648C51.1027 71.5106 54.3283 70.5998 57.6403 70.5998C60.9523 70.5998 64.1779 71.5106 66.7231 73.1648C69.5887 75.0278 71.4121 77.6828 71.9971 80.8436C72.067 81.1875 72.0586 81.5428 71.9726 81.883C71.8866 82.2233 71.7252 82.5398 71.5003 82.8092Z" fill="white"/>
</svg>
