<svg width="98" height="98" viewBox="0 0 98 98" fill="none" xmlns="http://www.w3.org/2000/svg">
<path d="M60.8797 77.8004C60.8797 84.1634 57.1627 89.3204 50.7997 89.3204H27.0397C20.6767 89.3204 16.9597 84.1634 16.9597 77.8004M63.3997 63.4004C66.5803 63.4004 69.1597 66.6242 69.1597 70.6004C69.1597 74.5766 66.5803 77.8004 63.3997 77.8004H14.4397C11.2591 77.8004 8.67969 74.5766 8.67969 70.6004C8.67969 66.6242 11.2591 63.4004 14.4397 63.4004" stroke="white" stroke-width="5.76" stroke-miterlimit="10" stroke-linecap="round"/>
<path d="M14.4397 52.6001V52.5605C14.4397 42.6605 22.5397 37.4801 32.4397 37.4801H45.3997C55.2997 37.4801 63.3997 42.7001 63.3997 52.6001V52.5605M46.2997 23.0801L47.6389 34.5947M64.8397 63.4001H35.1955C34.8141 63.4003 34.4483 63.5517 34.1785 63.8213L29.3491 68.6507C29.2822 68.7176 29.2028 68.7707 29.1154 68.807C29.028 68.8432 28.9343 68.8618 28.8397 68.8618C28.7451 68.8618 28.6514 68.8432 28.564 68.807C28.4766 68.7707 28.3972 68.7176 28.3303 68.6507L23.5009 63.8213C23.231 63.5517 22.8653 63.4003 22.4839 63.4001H12.9997C11.854 63.4001 10.7551 62.9449 9.94499 62.1348C9.13483 61.3246 8.67969 60.2258 8.67969 59.0801C8.67969 57.9343 9.13483 56.8355 9.94499 56.0254C10.7551 55.2152 11.854 54.7601 12.9997 54.7601H64.8397C65.9854 54.7601 67.0842 55.2152 67.8944 56.0254C68.7045 56.8355 69.1597 57.9343 69.1597 59.0801C69.1597 60.2258 68.7045 61.3246 67.8944 62.1348C67.0842 62.9449 65.9854 63.4001 64.8397 63.4001Z" stroke="white" stroke-width="5.76" stroke-miterlimit="10" stroke-linecap="round"/>
<path d="M49 89.3201H74.0758C75.529 89.32 76.9284 88.7708 77.9936 87.7823C79.0588 86.7939 79.7111 85.4394 79.8196 83.9903L86.26 23.0801" stroke="white" stroke-width="5.76" stroke-miterlimit="10" stroke-linecap="round"/>
<path d="M69.1602 23.0797L72.0402 11.5597L80.5002 8.67969" stroke="white" stroke-width="5.76" stroke-linecap="round" stroke-linejoin="round"/>
<path d="M43.2402 23.0801H89.3202" stroke="white" stroke-width="5.76" stroke-miterlimit="10" stroke-linecap="round"/>
</svg>
