<svg width="98" height="98" viewBox="0 0 98 98" fill="none" xmlns="http://www.w3.org/2000/svg">
<g clip-path="url(#clip0_1198_149)">
<path d="M25.4016 80.0004C23.3329 80.0004 21.3489 79.1786 19.8861 77.7158C18.4233 76.253 17.6016 74.2691 17.6016 72.2004V33.2004C17.6016 31.1317 18.4233 29.1477 19.8861 27.685C21.3489 26.2222 23.3329 25.4004 25.4016 25.4004H72.2016C74.2703 25.4004 76.2542 26.2222 77.717 27.685C79.1798 29.1477 80.0016 31.1317 80.0016 33.2004V72.2004C80.0016 74.2691 79.1798 76.253 77.717 77.7158C76.2542 79.1786 74.2703 80.0004 72.2016 80.0004" stroke="white" stroke-width="7.8" stroke-linecap="round" stroke-linejoin="round"/>
<path d="M33.1992 72.2008V17.6008C33.1992 15.5321 34.021 13.5481 35.4838 12.0853C36.9466 10.6226 38.9305 9.80078 40.9992 9.80078H56.5992C58.6679 9.80078 60.6519 10.6226 62.1147 12.0853C63.5774 13.5481 64.3992 15.5321 64.3992 17.6008V72.2008" stroke="white" stroke-width="7.8" stroke-linecap="round" stroke-linejoin="round"/>
<path d="M41 80H56.6" stroke="white" stroke-width="7.8" stroke-linecap="round" stroke-linejoin="round"/>
<path d="M64.4016 87.8012C68.7094 87.8012 72.2016 84.309 72.2016 80.0012C72.2016 75.6934 68.7094 72.2012 64.4016 72.2012C60.0937 72.2012 56.6016 75.6934 56.6016 80.0012C56.6016 84.309 60.0937 87.8012 64.4016 87.8012Z" stroke="white" stroke-width="7.8" stroke-linecap="round" stroke-linejoin="round"/>
<path d="M33.2023 87.8012C37.5102 87.8012 41.0023 84.309 41.0023 80.0012C41.0023 75.6934 37.5102 72.2012 33.2023 72.2012C28.8945 72.2012 25.4023 75.6934 25.4023 80.0012C25.4023 84.309 28.8945 87.8012 33.2023 87.8012Z" stroke="white" stroke-width="7.8" stroke-linecap="round" stroke-linejoin="round"/>
</g>
<defs>
<clipPath id="clip0_1198_149">
<rect width="98" height="98" fill="white"/>
</clipPath>
</defs>
</svg>
