<svg width="98" height="98" viewBox="0 0 98 98" fill="none" xmlns="http://www.w3.org/2000/svg">
<g clip-path="url(#clip0_588_17)">
<path d="M81.0004 13.7998H17.0004C11.6985 13.7998 7.40039 18.0979 7.40039 23.3998V74.5998C7.40039 79.9017 11.6985 84.1998 17.0004 84.1998H81.0004C86.3023 84.1998 90.6004 79.9017 90.6004 74.5998V23.3998C90.6004 18.0979 86.3023 13.7998 81.0004 13.7998Z" stroke="white" stroke-width="6.4" stroke-linejoin="round"/>
<path d="M64.9996 39.3996C68.5342 39.3996 71.3996 36.5342 71.3996 32.9996C71.3996 29.465 68.5342 26.5996 64.9996 26.5996C61.465 26.5996 58.5996 29.465 58.5996 32.9996C58.5996 36.5342 61.465 39.3996 64.9996 39.3996Z" stroke="white" stroke-width="6.4" stroke-miterlimit="10"/>
<path d="M58.6004 64.9583L40.4684 46.8603C39.3146 45.7068 37.7638 45.0375 36.133 44.9891C34.5022 44.9408 32.9145 45.5171 31.6944 46.6003L7.40039 68.2003M42.6004 84.2003L67.2684 59.5323C68.3965 58.4019 69.9065 57.7342 71.5018 57.6602C73.0971 57.5861 74.6624 58.1112 75.8904 59.1323L90.6004 71.4003" stroke="white" stroke-width="6.4" stroke-linecap="round" stroke-linejoin="round"/>
</g>
<defs>
<clipPath id="clip0_588_17">
<rect width="98" height="98" fill="white"/>
</clipPath>
</defs>
</svg>
