<svg width="98" height="98" viewBox="0 0 98 98" fill="none" xmlns="http://www.w3.org/2000/svg">
<g clip-path="url(#clip0_1053_42)">
<path d="M37.9324 68.1998H26.6004C21.5082 68.1998 16.6246 66.177 13.0239 62.5763C9.42324 58.9756 7.40039 54.092 7.40039 48.9998C7.40039 43.9076 9.42324 39.0241 13.0239 35.4234C16.6246 31.8227 21.5082 29.7998 26.6004 29.7998H37.6824M60.3184 29.7998H71.4004C76.4925 29.7998 81.3761 31.8227 84.9768 35.4234C88.5775 39.0241 90.6004 43.9076 90.6004 48.9998C90.6004 54.092 88.5775 58.9756 84.9768 62.5763C81.3761 66.177 76.4925 68.1998 71.4004 68.1998H60.0684M31.6144 48.9998H66.7864" stroke="#300276" stroke-width="9.6" stroke-linecap="round" stroke-linejoin="round"/>
</g>
<defs>
<clipPath id="clip0_1053_42">
<rect width="98" height="98" fill="white"/>
</clipPath>
</defs>
</svg>
