<svg width="98" height="98" viewBox="0 0 98 98" fill="none" xmlns="http://www.w3.org/2000/svg">
<g clip-path="url(#clip0_1094_91)">
<path d="M74.5996 42.5996V79.3996C74.5996 80.4502 74.3927 81.4905 73.9906 82.4611C73.5886 83.4317 72.9993 84.3136 72.2565 85.0565C71.5136 85.7993 70.6317 86.3886 69.6611 86.7906C68.6905 87.1927 67.6502 87.3996 66.5996 87.3996H18.5996C16.4779 87.3996 14.443 86.5568 12.9428 85.0565C11.4425 83.5562 10.5996 81.5213 10.5996 79.3996V31.3996C10.5996 29.2779 11.4425 27.243 12.9428 25.7428C14.443 24.2425 16.4779 23.3996 18.5996 23.3996H52.0956M64.9996 10.5996H87.3996V32.9996M42.5996 55.3996L85.7996 12.1996" stroke="white" stroke-width="6.4" stroke-linecap="round" stroke-linejoin="round"/>
</g>
<defs>
<clipPath id="clip0_1094_91">
<rect width="98" height="98" fill="white"/>
</clipPath>
</defs>
</svg>
