<svg width="98" height="98" viewBox="0 0 98 98" fill="none" xmlns="http://www.w3.org/2000/svg">
<path fill-rule="evenodd" clip-rule="evenodd" d="M29.7656 87.5234L28.8516 64.5078L39.2031 64.0938C43.625 64.7031 48.1016 66.9141 52.6016 69.5L60.6406 69.1797C64.2891 69.2578 66.3437 72.8672 62.8984 75.4297C60.1641 77.6094 56.4375 77.6406 52.6094 77.4453C49.9766 77.4219 50 80.9609 52.7422 80.8594C53.6953 80.8984 54.7266 80.6328 55.625 80.5937C60.3828 80.3984 64.2656 79.3359 66.5156 75.4766L67.6094 72.6172L79.3359 66.2109C85.2422 64 89.2187 69.5703 84.9844 74.1016C76.5703 80.75 68.4219 86.8125 59.5 91.3594C53.0625 95.6328 46.4531 95.7656 39.7031 92.1484L29.7656 87.5234ZM24.2344 52.4531H96.0312C96.5625 52.4531 97 52.8984 97 53.4219V57.6484C97 58.1719 96.5625 58.6172 96.0312 58.6172H24.2344C23.7031 58.6172 23.2656 58.1797 23.2656 57.6484V53.4219C23.2656 52.8906 23.7031 52.4531 24.2344 52.4531ZM62.9219 12.0312C82.5781 13.6016 99.1328 30.125 96.6875 49.5781H23.5859C21.1719 30 37.7891 13.4531 57.5859 12.0078V8.83594H54.4609C53.9141 8.83594 53.4609 8.38281 53.4609 7.83594V4.25781C53.4609 3.71094 53.9062 3.25781 54.4609 3.25781H65.9609C66.5078 3.25781 66.9609 3.71094 66.9609 4.25781V7.83594C66.9609 8.38281 66.5078 8.83594 65.9609 8.83594H62.9219V12.0312ZM1 63.7187L25.6484 62.4219L26.7422 89.9609L2.09375 91.25L1 63.7187Z" fill="#300276"/>
</svg>
