<svg width="98" height="98" viewBox="0 0 98 98" fill="none" xmlns="http://www.w3.org/2000/svg">
<g clip-path="url(#clip0_1140_110)">
<path d="M54.9998 55.0001L88.5874 55.0001C90.18 55.0015 91.708 54.3702 92.8352 53.245C93.9623 52.1198 94.5964 50.593 94.5978 49.0003C94.5992 47.4077 93.9679 45.8797 92.8427 44.7525C91.7175 43.6253 90.1906 42.9913 88.598 42.9899H55.0104L55.0104 9.40234C55.0104 7.80829 54.3772 6.27951 53.25 5.15234C52.1228 4.02517 50.5941 3.39194 49 3.39194C47.4059 3.39194 45.8772 4.02517 44.75 5.15234C43.6228 6.27951 42.9896 7.80829 42.9896 9.40234L42.9896 42.9899H9.40202C7.80796 42.9899 6.27919 43.6232 5.15202 44.7503C4.02485 45.8775 3.39161 47.4063 3.39161 49.0003C3.39161 50.5944 4.02485 52.1232 5.15202 53.2503C6.27919 54.3775 7.80796 55.0107 9.40202 55.0107L42.9896 55.0107V88.5983C42.9896 90.1924 43.6228 91.7211 44.75 92.8483C45.8772 93.9755 47.4059 94.6087 49 94.6087C50.5941 94.6087 52.1228 93.9755 53.25 92.8483C54.3772 91.7211 55.0104 90.1924 55.0104 88.5983L54.9998 55.0001Z" fill="white"/>
</g>
<defs>
<clipPath id="clip0_1140_110">
<rect width="98" height="98" fill="white"/>
</clipPath>
</defs>
</svg>
