<svg width="98" height="98" viewBox="0 0 98 98" fill="none" xmlns="http://www.w3.org/2000/svg">
<g clip-path="url(#clip0_648_25)">
<path d="M41.608 64.5455V64.1193C41.6553 59.5975 42.1288 55.9991 43.0284 53.3239C43.928 50.6487 45.2064 48.4825 46.8636 46.8253C48.5208 45.1681 50.5095 43.6411 52.8295 42.2443C54.2263 41.392 55.4811 40.3859 56.5938 39.2259C57.7064 38.0421 58.5824 36.6809 59.2216 35.142C59.8845 33.6032 60.2159 31.8987 60.2159 30.0284C60.2159 27.7083 59.6714 25.696 58.5824 23.9915C57.4934 22.2869 56.0374 20.973 54.2145 20.0497C52.3916 19.1264 50.3674 18.6648 48.142 18.6648C46.2008 18.6648 44.3305 19.0672 42.5312 19.8722C40.732 20.6771 39.2287 21.9437 38.0213 23.6719C36.8139 25.4001 36.1155 27.661 35.9261 30.4545H26.9773C27.1667 26.4299 28.2083 22.9853 30.1023 20.1207C32.0199 17.2562 34.5412 15.0663 37.6662 13.5511C40.8149 12.036 44.3068 11.2784 48.142 11.2784C52.3087 11.2784 55.9309 12.107 59.0085 13.7642C62.1098 15.4214 64.5009 17.6941 66.1818 20.5824C67.8864 23.4706 68.7386 26.7614 68.7386 30.4545C68.7386 33.0587 68.3362 35.4143 67.5312 37.5213C66.75 39.6283 65.6136 41.5104 64.1222 43.1676C62.6544 44.8248 60.8788 46.2926 58.7955 47.571C56.7121 48.8731 55.0431 50.2462 53.7884 51.6903C52.5336 53.1108 51.6222 54.8035 51.054 56.7685C50.4858 58.7334 50.178 61.1837 50.1307 64.1193V64.5455H41.608ZM46.1534 85.5682C44.4015 85.5682 42.8982 84.9408 41.6435 83.6861C40.3887 82.4313 39.7614 80.928 39.7614 79.1761C39.7614 77.4242 40.3887 75.9209 41.6435 74.6662C42.8982 73.4115 44.4015 72.7841 46.1534 72.7841C47.9053 72.7841 49.4086 73.4115 50.6634 74.6662C51.9181 75.9209 52.5455 77.4242 52.5455 79.1761C52.5455 80.3362 52.2495 81.4015 51.6577 82.3722C51.0895 83.3428 50.3201 84.1241 49.3494 84.7159C48.4025 85.2841 47.3371 85.5682 46.1534 85.5682Z" fill="#A1A0A0"/>
</g>
<defs>
<clipPath id="clip0_648_25">
<rect width="98" height="98" fill="white"/>
</clipPath>
</defs>
</svg>
