<svg width="98" height="98" viewBox="0 0 98 98" fill="none" xmlns="http://www.w3.org/2000/svg">
<path d="M90.0077 8.76088C89.3261 8.59879 88.6089 8.68627 87.9863 9.00748L83.5601 11.2179L79.0961 8.98588C78.6962 8.78595 78.2553 8.68186 77.8082 8.68186C77.3611 8.68186 76.9202 8.78595 76.5203 8.98588L72.0005 11.2197L67.5401 8.98588C67.139 8.78449 66.6965 8.67961 66.2477 8.67961C65.7989 8.67961 65.3563 8.78449 64.9553 8.98588L60.5201 11.2125L56.1191 8.99128C55.7191 8.7885 55.2773 8.68193 54.8289 8.68006C54.3804 8.67818 53.9377 8.78105 53.5361 8.98048L49.0001 11.2215L44.5361 8.98408C44.1355 8.78424 43.694 8.68022 43.2464 8.68022C42.7987 8.68022 42.3572 8.78424 41.9567 8.98408L37.4801 11.2179L33.0089 8.98408C32.4325 8.69514 31.7758 8.60798 31.1439 8.73656C30.5121 8.86515 29.9417 9.20204 29.5241 9.69328C29.0739 10.2298 28.8312 10.91 28.8401 11.6103V54.7599L28.8491 54.7689H63.4001C64.9277 54.7689 66.3928 55.3757 67.473 56.4559C68.5532 57.5362 69.1601 59.0012 69.1601 60.5289V79.2399C69.1601 84.8073 75.1127 89.3199 80.6801 89.3199H82.8401C85.3225 89.3199 87.7033 88.3337 89.4586 86.5784C91.2139 84.8231 92.2001 82.4423 92.2001 79.9599V11.5599C92.2006 10.9153 91.9848 10.2891 91.5874 9.78168C91.1899 9.27422 90.6336 8.91477 90.0077 8.76088ZM77.8001 46.1199H54.8501C53.2949 46.1199 51.9521 44.9247 51.8837 43.3695C51.8662 42.9808 51.9276 42.5926 52.0642 42.2284C52.2009 41.8641 52.4099 41.5313 52.6787 41.25C52.9476 40.9687 53.2706 40.7449 53.6283 40.5919C53.986 40.4389 54.371 40.36 54.7601 40.3599H77.7101C79.2653 40.3599 80.6081 41.5551 80.6765 43.1103C80.694 43.4989 80.6326 43.8871 80.4959 44.2514C80.3593 44.6157 80.1502 44.9485 79.8814 45.2298C79.6126 45.511 79.2896 45.7349 78.9319 45.8879C78.5742 46.0409 78.1891 46.1198 77.8001 46.1199ZM77.8001 31.7199H43.3301C41.7749 31.7199 40.4321 30.5247 40.3637 28.9695C40.3462 28.5808 40.4076 28.1926 40.5442 27.8284C40.6809 27.4641 40.8899 27.1313 41.1587 26.85C41.4276 26.5687 41.7506 26.3449 42.1083 26.1919C42.466 26.0389 42.851 25.96 43.2401 25.9599H77.7101C79.2653 25.9599 80.6081 27.1551 80.6765 28.7103C80.694 29.0989 80.6326 29.4871 80.4959 29.8514C80.3593 30.2157 80.1502 30.5485 79.8814 30.8298C79.6126 31.111 79.2896 31.3349 78.9319 31.4879C78.5742 31.6409 78.1891 31.7198 77.8001 31.7199Z" fill="white"/>
<path d="M63.4008 79.2395V63.3995C63.4008 62.6357 63.0974 61.9032 62.5573 61.3631C62.0171 60.823 61.2846 60.5195 60.5208 60.5195H11.5608C10.033 60.5243 8.56936 61.1339 7.48992 62.215C6.41048 63.2962 5.80315 64.7608 5.80078 66.2885C5.80078 75.3875 6.84118 79.1711 8.40358 82.0511C11.055 86.9417 15.8556 89.3195 23.0808 89.3195H67.3032C67.4452 89.3196 67.5842 89.2777 67.7024 89.1991C67.8207 89.1204 67.9131 89.0085 67.968 88.8775C68.0228 88.7464 68.0376 88.6021 68.0106 88.4627C67.9836 88.3232 67.916 88.1948 67.8162 88.0937C66.1134 86.3855 63.4008 84.0995 63.4008 79.2395Z" fill="white"/>
</svg>
