<svg width="98" height="98" viewBox="0 0 98 98" fill="none" xmlns="http://www.w3.org/2000/svg">
<g clip-path="url(#clip0_926_2)">
<path d="M90.9872 21.7522L76.2472 7.01223C75.3579 6.11793 74.3001 5.40891 73.1349 4.92623C71.9697 4.44354 70.7204 4.19678 69.4592 4.20023H16.9992C13.6044 4.20023 10.3487 5.5488 7.94825 7.94926C5.54779 10.3497 4.19922 13.6055 4.19922 17.0002V81.0002C4.19922 84.395 5.54779 87.6507 7.94825 90.0512C10.3487 92.4517 13.6044 93.8002 16.9992 93.8002H80.9992C84.394 93.8002 87.6497 92.4517 90.0502 90.0512C92.4507 87.6507 93.7992 84.395 93.7992 81.0002V28.5402C93.8027 27.279 93.5559 26.0297 93.0732 24.8645C92.5905 23.6994 91.8815 22.6415 90.9872 21.7522ZM21.7992 20.2002H56.9992C57.4236 20.2002 57.8305 20.3688 58.1306 20.6689C58.4306 20.9689 58.5992 21.3759 58.5992 21.8002V31.4002C58.5992 31.8246 58.4306 32.2315 58.1306 32.5316C57.8305 32.8317 57.4236 33.0002 56.9992 33.0002H21.7992C21.3749 33.0002 20.9679 32.8317 20.6678 32.5316C20.3678 32.2315 20.1992 31.8246 20.1992 31.4002V21.8002C20.1992 21.3759 20.3678 20.9689 20.6678 20.6689C20.9679 20.3688 21.3749 20.2002 21.7992 20.2002ZM49.7492 84.1822C46.5243 84.3336 43.329 83.5059 40.5832 81.8078C37.8374 80.1097 35.6695 77.6207 34.3644 74.6678C33.0593 71.7149 32.6781 68.4363 33.2707 65.2627C33.8634 62.0891 35.4023 59.169 37.6851 56.8861C39.968 54.6033 42.8881 53.0644 46.0617 52.4717C49.2352 51.8791 52.5139 52.2604 55.4668 53.5655C58.4197 54.8706 60.9087 57.0384 62.6068 59.7842C64.3049 62.53 65.1326 65.7253 64.9812 68.9502C64.7917 72.9289 63.1261 76.694 60.3095 79.5106C57.493 82.3271 53.7279 83.9927 49.7492 84.1822Z" fill="white"/>
<path d="M49.0004 77.7996C54.3023 77.7996 58.6004 73.5015 58.6004 68.1996C58.6004 62.8977 54.3023 58.5996 49.0004 58.5996C43.6985 58.5996 39.4004 62.8977 39.4004 68.1996C39.4004 73.5015 43.6985 77.7996 49.0004 77.7996Z" fill="white"/>
</g>
<defs>
<clipPath id="clip0_926_2">
<rect width="98" height="98" fill="white"/>
</clipPath>
</defs>
</svg>
