<svg width="98" height="98" viewBox="0 0 98 98" fill="none" xmlns="http://www.w3.org/2000/svg">
<g clip-path="url(#clip0_776_8)">
<path d="M58.4055 47.0987C55.569 47.0987 52.8264 45.8322 50.6797 43.5338C48.5923 41.2919 47.3175 38.3023 47.0926 35.1181C46.8526 31.7215 47.8887 28.598 50.0092 26.3216C52.1296 24.0452 55.0944 22.8174 58.4055 22.8174C61.6932 22.8174 64.6663 24.0673 66.7798 26.3382C68.9141 28.6311 69.953 31.7491 69.7129 35.1167C69.4825 38.305 68.2091 41.2933 66.1259 43.5324C63.9847 45.8322 61.2434 47.0987 58.4055 47.0987ZM76.5931 71.3801H40.2194C39.6346 71.3832 39.0568 71.2521 38.5306 70.9969C38.0044 70.7417 37.5438 70.3692 37.1842 69.908C36.8027 69.4081 36.5393 68.8283 36.4136 68.2121C36.288 67.596 36.3033 66.9594 36.4585 66.35C37.6202 61.6855 40.4981 57.817 44.7804 55.164C48.5813 52.8103 53.4196 51.5135 58.4055 51.5135C63.4894 51.5135 68.2008 52.7552 72.0238 55.1074C76.3158 57.7466 79.1978 61.6372 80.3539 66.3582C80.5073 66.9681 80.5209 67.6047 80.3938 68.2205C80.2667 68.8364 80.0022 69.4156 79.62 69.9149C79.2607 70.3739 78.8012 70.7446 78.2765 70.9986C77.7518 71.2526 77.176 71.383 76.5931 71.3801ZM32.3307 47.6506C27.4758 47.6506 23.2073 43.1364 22.8113 37.589C22.6154 34.747 23.5011 32.1188 25.2946 30.1915C27.0688 28.2834 29.5715 27.2322 32.3307 27.2322C35.0899 27.2322 37.5733 28.289 39.3571 30.208C41.1644 32.1505 42.0474 34.7732 41.8404 37.5917C41.4445 43.1378 37.1773 47.6506 32.3307 47.6506ZM41.3893 51.9895C38.9625 50.803 35.8129 50.2098 32.3321 50.2098C28.2677 50.2098 24.3206 51.2693 21.2165 53.1925C17.6971 55.3764 15.3296 58.5565 14.3735 62.396C14.2336 62.9482 14.2204 63.525 14.3348 64.083C14.4493 64.6411 14.6884 65.1661 15.0344 65.6188C15.3627 66.0402 15.7832 66.3807 16.2637 66.6141C16.7442 66.8476 17.2718 66.9677 17.806 66.9653H33.1198C33.3783 66.9652 33.6286 66.8745 33.827 66.7088C34.0254 66.5432 34.1594 66.3132 34.2056 66.0589C34.2208 65.9719 34.2401 65.885 34.2622 65.7995C35.4321 61.1005 38.1734 57.1299 42.224 54.2355C42.3729 54.1281 42.4928 53.9852 42.5726 53.8198C42.6524 53.6544 42.6897 53.4717 42.6811 53.2883C42.6724 53.1048 42.6181 52.9264 42.5232 52.7693C42.4282 52.6121 42.2954 52.4811 42.137 52.3882C41.9204 52.2613 41.6721 52.1274 41.3893 51.9895Z" fill="white"/>
<path d="M81.1993 20.249C69.8927 8.43237 52.6016 3.31162 36.1112 8.48752C20.0613 13.5251 8.96282 27.0005 6.05235 42.6145M81.1993 20.249L80.3216 10.0986M81.1993 20.249L71.3513 22.8878" stroke="white" stroke-width="6" stroke-linecap="round" stroke-linejoin="round"/>
<path d="M15.7968 78.9013C27.1034 90.718 44.3945 95.8388 60.8849 90.6629C76.9348 85.6253 88.0333 72.1499 90.9437 56.5359M15.7968 78.9013L16.6744 89.0518M15.7968 78.9013L25.6448 76.2626" stroke="white" stroke-width="6" stroke-linecap="round" stroke-linejoin="round"/>
</g>
<defs>
<clipPath id="clip0_776_8">
<rect width="98" height="98" fill="white"/>
</clipPath>
</defs>
</svg>
